<?xml version="1.0" ?><svg height="32" id="svg8" version="1.1" viewBox="0 0 8.4666665 8.4666669" width="32" xmlns="http://www.w3.org/2000/svg" xmlns:cc="http://creativecommons.org/ns#" xmlns:dc="http://purl.org/dc/elements/1.1/" xmlns:inkscape="http://www.inkscape.org/namespaces/inkscape" xmlns:rdf="http://www.w3.org/1999/02/22-rdf-syntax-ns#" xmlns:sodipodi="http://sodipodi.sourceforge.net/DTD/sodipodi-0.dtd" xmlns:svg="http://www.w3.org/2000/svg"><defs id="defs2"/><g id="layer1" transform="translate(0,-288.53332)"><path d="m 4.2333333,288.79997 c -1.0254893,1.3e-4 -2.0389549,0.28161 -3.0365071,0.82372 a 0.26460976,0.26460976 0 0 0 -0.1384929,0.23255 c 0,1.71979 -0.00753,2.93713 0.3798218,3.99355 0.3873537,1.05642 1.1737871,1.90291 2.6530681,2.84427 a 0.26460976,0.26460976 0 0 0 0.2842202,0 c 1.4792811,-0.94136 2.2657143,-1.78785 2.653068,-2.84427 0.3873537,-1.05642 0.3798218,-2.27376 0.3798218,-3.99355 a 0.26460976,0.26460976 0 0 0 -0.1384929,-0.23255 c -0.9975218,-0.54209 -2.0109302,-0.82385 -3.036507,-0.82372 z m 0,0.52917 c 0.8817888,-1.1e-4 1.757486,0.24501 2.6422159,0.70176 -0.00105,1.60974 -0.017406,2.74583 -0.344165,3.63699 -0.3254033,0.88746 -0.9921972,1.61007 -2.2980509,2.46755 -1.305854,-0.85748 -1.9726477,-1.58009 -2.2980509,-2.46755 -0.3267587,-0.89116 -0.3431115,-2.02725 -0.3441651,-3.63699 0.8847051,-0.45672 1.7603436,-0.70165 2.642216,-0.70176 z" id="rect947" style="color:#000000;font-style:normal;font-variant:normal;font-weight:normal;font-stretch:normal;font-size:medium;line-height:normal;font-family:sans-serif;font-variant-ligatures:normal;font-variant-position:normal;font-variant-caps:normal;font-variant-numeric:normal;font-variant-alternates:normal;font-feature-settings:normal;text-indent:0;text-align:start;text-decoration:none;text-decoration-line:none;text-decoration-style:solid;text-decoration-color:#000000;letter-spacing:normal;word-spacing:normal;text-transform:none;writing-mode:lr-tb;direction:ltr;text-orientation:mixed;dominant-baseline:auto;baseline-shift:baseline;text-anchor:start;white-space:normal;shape-padding:0;clip-rule:nonzero;display:inline;overflow:visible;visibility:visible;opacity:1;isolation:auto;mix-blend-mode:normal;color-interpolation:sRGB;color-interpolation-filters:linearRGB;solid-color:#000000;solid-opacity:1;vector-effect:none;fill:#000000;fill-opacity:1;fill-rule:nonzero;stroke:none;stroke-width:0.52916664;stroke-linecap:round;stroke-linejoin:round;stroke-miterlimit:4;stroke-dasharray:none;stroke-dashoffset:0;stroke-opacity:1;paint-order:stroke fill markers;color-rendering:auto;image-rendering:auto;shape-rendering:auto;text-rendering:auto;enable-background:accumulate"/></g></svg>